<?xml version="1.0" encoding="UTF-8" standalone="no"?>
<!DOCTYPE svg PUBLIC "-//W3C//DTD SVG 1.1//EN"
 "http://www.w3.org/Graphics/SVG/1.1/DTD/svg11.dtd">
<!-- Generated by graphviz version 2.38.0 (20140413.2041)
 -->
<!-- Title: perceptron Pages: 1 -->
<svg width="588pt" height="289pt"
 viewBox="0.00 0.00 588.00 289.00" xmlns="http://www.w3.org/2000/svg" xmlns:xlink="http://www.w3.org/1999/xlink">
<g id="graph0" class="graph" transform="scale(1 1) rotate(0) translate(4 285)">
<title>perceptron</title>
<polygon fill="white" stroke="none" points="-4,4 -4,-285 584,-285 584,4 -4,4"/>
<!-- in_0 -->
<g id="node1" class="node"><title>in_0</title>
<ellipse fill="none" stroke="black" cx="209" cy="-7" rx="7" ry="7"/>
</g>
<!-- h_0 -->
<g id="node9" class="node"><title>h_0</title>
<ellipse fill="none" stroke="black" cx="259" cy="-97" rx="11" ry="11"/>
</g>
<!-- in_0&#45;&gt;h_0 -->
<g id="edge1" class="edge"><title>in_0&#45;&gt;h_0</title>
<path fill="none" stroke="black" d="M212.128,-13.5048C219.33,-26.1806 237.346,-57.8891 248.828,-78.0973"/>
<polygon fill="black" stroke="black" points="245.88,-79.9946 253.864,-86.9601 251.967,-76.5365 245.88,-79.9946"/>
</g>
<!-- h_1 -->
<g id="node10" class="node"><title>h_1</title>
<ellipse fill="none" stroke="black" cx="321" cy="-97" rx="11" ry="11"/>
</g>
<!-- in_0&#45;&gt;h_1 -->
<g id="edge2" class="edge"><title>in_0&#45;&gt;h_1</title>
<path fill="none" stroke="black" d="M214.103,-12.0098C229.952,-24.4619 278.8,-62.8426 304.618,-83.1282"/>
<polygon fill="black" stroke="black" points="302.672,-86.0505 312.698,-89.4766 306.997,-80.5463 302.672,-86.0505"/>
</g>
<!-- h_2 -->
<g id="node11" class="node"><title>h_2</title>
<ellipse fill="none" stroke="black" cx="383" cy="-97" rx="11" ry="11"/>
</g>
<!-- in_0&#45;&gt;h_2 -->
<g id="edge3" class="edge"><title>in_0&#45;&gt;h_2</title>
<path fill="none" stroke="black" d="M215.193,-11.132C239.089,-23.2176 325.878,-67.1109 364.383,-86.5844"/>
<polygon fill="black" stroke="black" points="362.966,-89.7899 373.469,-91.1798 366.125,-83.5433 362.966,-89.7899"/>
</g>
<!-- h_3 -->
<g id="node12" class="node"><title>h_3</title>
<ellipse fill="none" stroke="black" cx="445" cy="-97" rx="11" ry="11"/>
</g>
<!-- in_0&#45;&gt;h_3 -->
<g id="edge4" class="edge"><title>in_0&#45;&gt;h_3</title>
<path fill="none" stroke="black" d="M215.312,-10.3538C245.429,-21.5836 375.113,-69.9403 425.176,-88.608"/>
<polygon fill="black" stroke="black" points="424.247,-91.9968 434.839,-92.2113 426.692,-85.4379 424.247,-91.9968"/>
</g>
<!-- h_4 -->
<g id="node13" class="node"><title>h_4</title>
<ellipse fill="none" stroke="black" cx="507" cy="-97" rx="11" ry="11"/>
</g>
<!-- in_0&#45;&gt;h_4 -->
<g id="edge5" class="edge"><title>in_0&#45;&gt;h_4</title>
<path fill="none" stroke="black" d="M215.501,-9.91984C251.479,-20.5442 426.728,-72.2954 486.771,-90.0262"/>
<polygon fill="black" stroke="black" points="486,-93.448 496.582,-92.9234 487.982,-86.7346 486,-93.448"/>
</g>
<!-- h_5 -->
<g id="node14" class="node"><title>h_5</title>
<ellipse fill="none" stroke="black" cx="569" cy="-97" rx="11" ry="11"/>
</g>
<!-- in_0&#45;&gt;h_5 -->
<g id="edge6" class="edge"><title>in_0&#45;&gt;h_5</title>
<path fill="none" stroke="black" d="M215.556,-9.60253C256.629,-19.6427 479.016,-74.0039 548.347,-90.9516"/>
<polygon fill="black" stroke="black" points="547.901,-94.4454 558.446,-93.4201 549.563,-87.6456 547.901,-94.4454"/>
</g>
<!-- h_6 -->
<g id="node15" class="node"><title>h_6</title>
<ellipse fill="none" stroke="black" cx="11" cy="-97" rx="11" ry="11"/>
</g>
<!-- in_0&#45;&gt;h_6 -->
<g id="edge7" class="edge"><title>in_0&#45;&gt;h_6</title>
<path fill="none" stroke="black" d="M202.857,-10.7302C176.631,-22.3863 73.4162,-68.2594 30.1964,-87.4683"/>
<polygon fill="black" stroke="black" points="28.7457,-84.2828 21.0291,-91.5426 31.5887,-90.6795 28.7457,-84.2828"/>
</g>
<!-- h_7 -->
<g id="node16" class="node"><title>h_7</title>
<ellipse fill="none" stroke="black" cx="73" cy="-97" rx="11" ry="11"/>
</g>
<!-- in_0&#45;&gt;h_7 -->
<g id="edge8" class="edge"><title>in_0&#45;&gt;h_7</title>
<path fill="none" stroke="black" d="M203.5,-11.5587C184.585,-23.7977 121.672,-64.5065 90.6308,-84.5918"/>
<polygon fill="black" stroke="black" points="88.599,-81.7377 82.1047,-90.1087 92.4018,-87.6147 88.599,-81.7377"/>
</g>
<!-- h_8 -->
<g id="node17" class="node"><title>h_8</title>
<ellipse fill="none" stroke="black" cx="135" cy="-97" rx="11" ry="11"/>
</g>
<!-- in_0&#45;&gt;h_8 -->
<g id="edge9" class="edge"><title>in_0&#45;&gt;h_8</title>
<path fill="none" stroke="black" d="M204.809,-12.9834C194.055,-25.7727 165.128,-60.1718 148.074,-80.452"/>
<polygon fill="black" stroke="black" points="145.337,-78.2686 141.58,-88.1749 150.695,-82.7738 145.337,-78.2686"/>
</g>
<!-- h_9 -->
<g id="node18" class="node"><title>h_9</title>
<ellipse fill="none" stroke="black" cx="197" cy="-97" rx="11" ry="11"/>
</g>
<!-- in_0&#45;&gt;h_9 -->
<g id="edge10" class="edge"><title>in_0&#45;&gt;h_9</title>
<path fill="none" stroke="black" d="M208.175,-14.0486C206.46,-26.63 202.44,-56.1056 199.72,-76.0555"/>
<polygon fill="black" stroke="black" points="196.248,-75.6097 198.365,-85.991 203.184,-76.5556 196.248,-75.6097"/>
</g>
<!-- in_1 -->
<g id="node2" class="node"><title>in_1</title>
<ellipse fill="none" stroke="black" cx="263" cy="-7" rx="7" ry="7"/>
</g>
<!-- in_1&#45;&gt;h_0 -->
<g id="edge11" class="edge"><title>in_1&#45;&gt;h_0</title>
<path fill="none" stroke="black" d="M262.725,-14.0486C262.156,-26.5717 260.826,-55.8331 259.919,-75.7778"/>
<polygon fill="black" stroke="black" points="256.413,-75.8423 259.455,-85.991 263.406,-76.1602 256.413,-75.8423"/>
</g>
<!-- in_1&#45;&gt;h_1 -->
<g id="edge12" class="edge"><title>in_1&#45;&gt;h_1</title>
<path fill="none" stroke="black" d="M266.454,-13.2413C274.792,-25.8906 296.313,-58.5433 309.695,-78.8478"/>
<polygon fill="black" stroke="black" points="306.931,-81.0136 315.356,-87.4371 312.775,-77.1614 306.931,-81.0136"/>
</g>
<!-- in_1&#45;&gt;h_2 -->
<g id="edge13" class="edge"><title>in_1&#45;&gt;h_2</title>
<path fill="none" stroke="black" d="M268.156,-11.7812C284.923,-24.0769 338.408,-63.2991 366.069,-83.5842"/>
<polygon fill="black" stroke="black" points="364.236,-86.58 374.37,-89.6713 368.376,-80.9352 364.236,-86.58"/>
</g>
<!-- in_1&#45;&gt;h_3 -->
<g id="edge14" class="edge"><title>in_1&#45;&gt;h_3</title>
<path fill="none" stroke="black" d="M269.055,-10.9279C293.567,-22.7797 386.028,-67.4858 426.188,-86.904"/>
<polygon fill="black" stroke="black" points="424.881,-90.1597 435.407,-91.3618 427.928,-83.8577 424.881,-90.1597"/>
</g>
<!-- in_1&#45;&gt;h_4 -->
<g id="edge15" class="edge"><title>in_1&#45;&gt;h_4</title>
<path fill="none" stroke="black" d="M269.277,-10.2637C300.057,-21.365 435.638,-70.263 487.097,-88.822"/>
<polygon fill="black" stroke="black" points="486.139,-92.1969 496.733,-92.2972 488.514,-85.6121 486.139,-92.1969"/>
</g>
<!-- in_1&#45;&gt;h_5 -->
<g id="edge16" class="edge"><title>in_1&#45;&gt;h_5</title>
<path fill="none" stroke="black" d="M269.676,-9.91984C306.702,-20.5679 487.375,-72.5262 548.638,-90.1442"/>
<polygon fill="black" stroke="black" points="548.048,-93.6163 558.626,-93.0165 549.982,-86.889 548.048,-93.6163"/>
</g>
<!-- in_1&#45;&gt;h_6 -->
<g id="edge17" class="edge"><title>in_1&#45;&gt;h_6</title>
<path fill="none" stroke="black" d="M256.518,-10.2637C224.589,-21.4133 83.4784,-70.6901 30.8652,-89.063"/>
<polygon fill="black" stroke="black" points="29.6028,-85.7965 21.3158,-92.3977 31.9106,-92.4051 29.6028,-85.7965"/>
</g>
<!-- in_1&#45;&gt;h_7 -->
<g id="edge18" class="edge"><title>in_1&#45;&gt;h_7</title>
<path fill="none" stroke="black" d="M256.678,-10.9279C230.981,-22.8301 133.744,-67.8661 92.1079,-87.15"/>
<polygon fill="black" stroke="black" points="90.6173,-83.9831 83.0143,-91.3618 93.5593,-90.335 90.6173,-83.9831"/>
</g>
<!-- in_1&#45;&gt;h_8 -->
<g id="edge19" class="edge"><title>in_1&#45;&gt;h_8</title>
<path fill="none" stroke="black" d="M257.5,-11.7812C239.451,-24.1897 181.515,-64.0212 152.254,-84.1378"/>
<polygon fill="black" stroke="black" points="150.106,-81.3672 143.848,-89.9167 154.072,-87.1355 150.106,-81.3672"/>
</g>
<!-- in_1&#45;&gt;h_9 -->
<g id="edge20" class="edge"><title>in_1&#45;&gt;h_9</title>
<path fill="none" stroke="black" d="M259.262,-12.9834C249.808,-25.5889 224.609,-59.1876 209.323,-79.569"/>
<polygon fill="black" stroke="black" points="206.471,-77.5381 203.271,-87.6381 212.071,-81.7381 206.471,-77.5381"/>
</g>
<!-- in_2 -->
<g id="node3" class="node"><title>in_2</title>
<ellipse fill="none" stroke="black" cx="317" cy="-7" rx="7" ry="7"/>
</g>
<!-- in_2&#45;&gt;h_0 -->
<g id="edge21" class="edge"><title>in_2&#45;&gt;h_0</title>
<path fill="none" stroke="black" d="M313.546,-13.2413C305.208,-25.8906 283.687,-58.5433 270.305,-78.8478"/>
<polygon fill="black" stroke="black" points="267.225,-77.1614 264.644,-87.4371 273.069,-81.0136 267.225,-77.1614"/>
</g>
<!-- in_2&#45;&gt;h_1 -->
<g id="edge22" class="edge"><title>in_2&#45;&gt;h_1</title>
<path fill="none" stroke="black" d="M317.275,-14.0486C317.844,-26.5717 319.174,-55.8331 320.081,-75.7778"/>
<polygon fill="black" stroke="black" points="316.594,-76.1602 320.545,-85.991 323.587,-75.8423 316.594,-76.1602"/>
</g>
<!-- in_2&#45;&gt;h_2 -->
<g id="edge23" class="edge"><title>in_2&#45;&gt;h_2</title>
<path fill="none" stroke="black" d="M320.738,-12.9834C330.192,-25.5889 355.391,-59.1876 370.677,-79.569"/>
<polygon fill="black" stroke="black" points="367.929,-81.7381 376.729,-87.6381 373.529,-77.5381 367.929,-81.7381"/>
</g>
<!-- in_2&#45;&gt;h_3 -->
<g id="edge24" class="edge"><title>in_2&#45;&gt;h_3</title>
<path fill="none" stroke="black" d="M322.5,-11.7812C340.549,-24.1897 398.485,-64.0212 427.746,-84.1378"/>
<polygon fill="black" stroke="black" points="425.928,-87.1355 436.152,-89.9167 429.894,-81.3672 425.928,-87.1355"/>
</g>
<!-- in_2&#45;&gt;h_4 -->
<g id="edge25" class="edge"><title>in_2&#45;&gt;h_4</title>
<path fill="none" stroke="black" d="M323.322,-10.9279C349.019,-22.8301 446.256,-67.8661 487.892,-87.15"/>
<polygon fill="black" stroke="black" points="486.441,-90.335 496.986,-91.3618 489.383,-83.9831 486.441,-90.335"/>
</g>
<!-- in_2&#45;&gt;h_5 -->
<g id="edge26" class="edge"><title>in_2&#45;&gt;h_5</title>
<path fill="none" stroke="black" d="M323.482,-10.2637C355.411,-21.4133 496.522,-70.6901 549.135,-89.063"/>
<polygon fill="black" stroke="black" points="548.089,-92.4051 558.684,-92.3977 550.397,-85.7965 548.089,-92.4051"/>
</g>
<!-- in_2&#45;&gt;h_6 -->
<g id="edge27" class="edge"><title>in_2&#45;&gt;h_6</title>
<path fill="none" stroke="black" d="M310.324,-9.91984C273.298,-20.5679 92.6249,-72.5262 31.3623,-90.1442"/>
<polygon fill="black" stroke="black" points="30.0175,-86.889 21.3744,-93.0165 31.9522,-93.6163 30.0175,-86.889"/>
</g>
<!-- in_2&#45;&gt;h_7 -->
<g id="edge28" class="edge"><title>in_2&#45;&gt;h_7</title>
<path fill="none" stroke="black" d="M310.723,-10.2637C279.943,-21.365 144.362,-70.263 92.9027,-88.822"/>
<polygon fill="black" stroke="black" points="91.4862,-85.6121 83.2667,-92.2972 93.8611,-92.1969 91.4862,-85.6121"/>
</g>
<!-- in_2&#45;&gt;h_8 -->
<g id="edge29" class="edge"><title>in_2&#45;&gt;h_8</title>
<path fill="none" stroke="black" d="M310.945,-10.9279C286.433,-22.7797 193.972,-67.4858 153.812,-86.904"/>
<polygon fill="black" stroke="black" points="152.072,-83.8577 144.593,-91.3618 155.119,-90.1597 152.072,-83.8577"/>
</g>
<!-- in_2&#45;&gt;h_9 -->
<g id="edge30" class="edge"><title>in_2&#45;&gt;h_9</title>
<path fill="none" stroke="black" d="M311.844,-11.7812C295.077,-24.0769 241.592,-63.2991 213.931,-83.5842"/>
<polygon fill="black" stroke="black" points="211.624,-80.9352 205.63,-89.6713 215.764,-86.58 211.624,-80.9352"/>
</g>
<!-- in_3 -->
<g id="node4" class="node"><title>in_3</title>
<ellipse fill="none" stroke="black" cx="371" cy="-7" rx="7" ry="7"/>
</g>
<!-- in_3&#45;&gt;h_0 -->
<g id="edge31" class="edge"><title>in_3&#45;&gt;h_0</title>
<path fill="none" stroke="black" d="M365.897,-12.0098C350.048,-24.4619 301.2,-62.8426 275.382,-83.1282"/>
<polygon fill="black" stroke="black" points="273.003,-80.5463 267.302,-89.4766 277.328,-86.0505 273.003,-80.5463"/>
</g>
<!-- in_3&#45;&gt;h_1 -->
<g id="edge32" class="edge"><title>in_3&#45;&gt;h_1</title>
<path fill="none" stroke="black" d="M367.872,-13.5048C360.67,-26.1806 342.654,-57.8891 331.172,-78.0973"/>
<polygon fill="black" stroke="black" points="328.033,-76.5365 326.136,-86.9601 334.12,-79.9946 328.033,-76.5365"/>
</g>
<!-- in_3&#45;&gt;h_2 -->
<g id="edge33" class="edge"><title>in_3&#45;&gt;h_2</title>
<path fill="none" stroke="black" d="M371.825,-14.0486C373.54,-26.63 377.56,-56.1056 380.28,-76.0555"/>
<polygon fill="black" stroke="black" points="376.816,-76.5556 381.635,-85.991 383.752,-75.6097 376.816,-76.5556"/>
</g>
<!-- in_3&#45;&gt;h_3 -->
<g id="edge34" class="edge"><title>in_3&#45;&gt;h_3</title>
<path fill="none" stroke="black" d="M375.191,-12.9834C385.945,-25.7727 414.872,-60.1718 431.926,-80.452"/>
<polygon fill="black" stroke="black" points="429.305,-82.7738 438.42,-88.1749 434.663,-78.2686 429.305,-82.7738"/>
</g>
<!-- in_3&#45;&gt;h_4 -->
<g id="edge35" class="edge"><title>in_3&#45;&gt;h_4</title>
<path fill="none" stroke="black" d="M376.5,-11.5587C395.415,-23.7977 458.328,-64.5065 489.369,-84.5918"/>
<polygon fill="black" stroke="black" points="487.598,-87.6147 497.895,-90.1087 491.401,-81.7377 487.598,-87.6147"/>
</g>
<!-- in_3&#45;&gt;h_5 -->
<g id="edge36" class="edge"><title>in_3&#45;&gt;h_5</title>
<path fill="none" stroke="black" d="M377.143,-10.7302C403.369,-22.3863 506.584,-68.2594 549.804,-87.4683"/>
<polygon fill="black" stroke="black" points="548.411,-90.6795 558.971,-91.5426 551.254,-84.2828 548.411,-90.6795"/>
</g>
<!-- in_3&#45;&gt;h_6 -->
<g id="edge37" class="edge"><title>in_3&#45;&gt;h_6</title>
<path fill="none" stroke="black" d="M364.444,-9.60253C323.371,-19.6427 100.984,-74.0039 31.6525,-90.9516"/>
<polygon fill="black" stroke="black" points="30.437,-87.6456 21.5541,-93.4201 32.0992,-94.4454 30.437,-87.6456"/>
</g>
<!-- in_3&#45;&gt;h_7 -->
<g id="edge38" class="edge"><title>in_3&#45;&gt;h_7</title>
<path fill="none" stroke="black" d="M364.499,-9.91984C328.521,-20.5442 153.272,-72.2954 93.2294,-90.0262"/>
<polygon fill="black" stroke="black" points="92.0176,-86.7346 83.4183,-92.9234 94.0002,-93.448 92.0176,-86.7346"/>
</g>
<!-- in_3&#45;&gt;h_8 -->
<g id="edge39" class="edge"><title>in_3&#45;&gt;h_8</title>
<path fill="none" stroke="black" d="M364.688,-10.3538C334.571,-21.5836 204.887,-69.9403 154.824,-88.608"/>
<polygon fill="black" stroke="black" points="153.308,-85.4379 145.161,-92.2113 155.753,-91.9968 153.308,-85.4379"/>
</g>
<!-- in_3&#45;&gt;h_9 -->
<g id="edge40" class="edge"><title>in_3&#45;&gt;h_9</title>
<path fill="none" stroke="black" d="M364.807,-11.132C340.911,-23.2176 254.122,-67.1109 215.617,-86.5844"/>
<polygon fill="black" stroke="black" points="213.875,-83.5433 206.531,-91.1798 217.034,-89.7899 213.875,-83.5433"/>
</g>
<!-- in_4 -->
<g id="node5" class="node"><title>in_4</title>
<ellipse fill="none" stroke="black" cx="425" cy="-7" rx="7" ry="7"/>
</g>
<!-- in_4&#45;&gt;h_0 -->
<g id="edge41" class="edge"><title>in_4&#45;&gt;h_0</title>
<path fill="none" stroke="black" d="M419.092,-11.132C396.497,-23.1102 314.962,-66.3333 277.751,-86.0595"/>
<polygon fill="black" stroke="black" points="275.713,-83.1785 268.517,-90.9547 278.992,-89.3632 275.713,-83.1785"/>
</g>
<!-- in_4&#45;&gt;h_1 -->
<g id="edge42" class="edge"><title>in_4&#45;&gt;h_1</title>
<path fill="none" stroke="black" d="M419.984,-12.2444C405.095,-24.8424 360.707,-62.4018 336.749,-82.6736"/>
<polygon fill="black" stroke="black" points="334.313,-80.1504 328.94,-89.2818 338.834,-85.4942 334.313,-80.1504"/>
</g>
<!-- in_4&#45;&gt;h_2 -->
<g id="edge43" class="edge"><title>in_4&#45;&gt;h_2</title>
<path fill="none" stroke="black" d="M422.373,-13.5048C416.381,-26.0586 401.48,-57.2805 391.824,-77.5107"/>
<polygon fill="black" stroke="black" points="388.597,-76.1477 387.448,-86.6801 394.914,-79.1628 388.597,-76.1477"/>
</g>
<!-- in_4&#45;&gt;h_3 -->
<g id="edge44" class="edge"><title>in_4&#45;&gt;h_3</title>
<path fill="none" stroke="black" d="M426.375,-14.0486C429.234,-26.63 435.933,-56.1056 440.467,-76.0555"/>
<polygon fill="black" stroke="black" points="437.096,-77.0153 442.725,-85.991 443.922,-75.4639 437.096,-77.0153"/>
</g>
<!-- in_4&#45;&gt;h_4 -->
<g id="edge45" class="edge"><title>in_4&#45;&gt;h_4</title>
<path fill="none" stroke="black" d="M429.409,-12.7313C441.221,-25.4076 473.967,-60.5504 492.931,-80.9013"/>
<polygon fill="black" stroke="black" points="490.515,-83.4432 499.893,-88.3732 495.637,-78.6711 490.515,-83.4432"/>
</g>
<!-- in_4&#45;&gt;h_5 -->
<g id="edge46" class="edge"><title>in_4&#45;&gt;h_5</title>
<path fill="none" stroke="black" d="M430.823,-11.5587C450.946,-23.856 518.101,-64.8949 550.799,-84.8773"/>
<polygon fill="black" stroke="black" points="549.393,-88.1196 559.751,-90.3477 553.043,-82.1466 549.393,-88.1196"/>
</g>
<!-- in_4&#45;&gt;h_6 -->
<g id="edge47" class="edge"><title>in_4&#45;&gt;h_6</title>
<path fill="none" stroke="black" d="M418.16,-9.45398C372.166,-19.2305 107.503,-75.4873 31.4397,-91.6553"/>
<polygon fill="black" stroke="black" points="30.688,-88.2368 21.6342,-93.7396 32.1434,-95.0839 30.688,-88.2368"/>
</g>
<!-- in_4&#45;&gt;h_7 -->
<g id="edge48" class="edge"><title>in_4&#45;&gt;h_7</title>
<path fill="none" stroke="black" d="M418.283,-9.67934C377.407,-19.8983 161.592,-73.852 93.5599,-90.86"/>
<polygon fill="black" stroke="black" points="92.4801,-87.5222 83.6276,-93.3431 94.1779,-94.3132 92.4801,-87.5222"/>
</g>
<!-- in_4&#45;&gt;h_8 -->
<g id="edge49" class="edge"><title>in_4&#45;&gt;h_8</title>
<path fill="none" stroke="black" d="M418.398,-10.0033C382.84,-20.7932 213.568,-72.1587 154.998,-89.9317"/>
<polygon fill="black" stroke="black" points="153.96,-86.5891 145.407,-92.8421 155.992,-93.2875 153.96,-86.5891"/>
</g>
<!-- in_4&#45;&gt;h_9 -->
<g id="edge50" class="edge"><title>in_4&#45;&gt;h_9</title>
<path fill="none" stroke="black" d="M418.422,-10.5388C388.555,-22.0664 265.074,-69.7258 216.63,-88.4236"/>
<polygon fill="black" stroke="black" points="215.068,-85.2748 206.999,-92.1408 217.588,-91.8053 215.068,-85.2748"/>
</g>
<!-- in_5 -->
<g id="node6" class="node"><title>in_5</title>
<ellipse fill="none" stroke="black" cx="479" cy="-7" rx="7" ry="7"/>
</g>
<!-- in_5&#45;&gt;h_0 -->
<g id="edge51" class="edge"><title>in_5&#45;&gt;h_0</title>
<path fill="none" stroke="black" d="M472.653,-10.5388C443.899,-22.0402 325.227,-69.5093 278.261,-88.2957"/>
<polygon fill="black" stroke="black" points="276.89,-85.0743 268.905,-92.038 279.49,-91.5737 276.89,-85.0743"/>
</g>
<!-- in_5&#45;&gt;h_1 -->
<g id="edge52" class="edge"><title>in_5&#45;&gt;h_1</title>
<path fill="none" stroke="black" d="M472.999,-11.3422C451.05,-23.5672 374.57,-66.1636 339.199,-85.8639"/>
<polygon fill="black" stroke="black" points="337.425,-82.8453 330.392,-90.7689 340.832,-88.9608 337.425,-82.8453"/>
</g>
<!-- in_5&#45;&gt;h_2 -->
<g id="edge53" class="edge"><title>in_5&#45;&gt;h_2</title>
<path fill="none" stroke="black" d="M474.107,-12.4849C460.284,-25.1562 420.507,-61.6185 398.356,-81.9235"/>
<polygon fill="black" stroke="black" points="395.827,-79.4939 390.82,-88.8312 400.557,-84.654 395.827,-79.4939"/>
</g>
<!-- in_5&#45;&gt;h_3 -->
<g id="edge54" class="edge"><title>in_5&#45;&gt;h_3</title>
<path fill="none" stroke="black" d="M476.769,-13.7739C471.888,-26.4079 460.077,-56.9784 452.312,-77.0743"/>
<polygon fill="black" stroke="black" points="449.018,-75.8885 448.679,-86.4779 455.548,-78.4113 449.018,-75.8885"/>
</g>
<!-- in_5&#45;&gt;h_4 -->
<g id="edge55" class="edge"><title>in_5&#45;&gt;h_4</title>
<path fill="none" stroke="black" d="M480.837,-13.7739C484.818,-26.2851 494.396,-56.3859 500.791,-76.4855"/>
<polygon fill="black" stroke="black" points="497.512,-77.7252 503.88,-86.1933 504.183,-75.6028 497.512,-77.7252"/>
</g>
<!-- in_5&#45;&gt;h_5 -->
<g id="edge56" class="edge"><title>in_5&#45;&gt;h_5</title>
<path fill="none" stroke="black" d="M483.839,-12.7313C496.925,-25.527 533.424,-61.2143 554.142,-81.4723"/>
<polygon fill="black" stroke="black" points="551.87,-84.1457 561.467,-88.6344 556.764,-79.1407 551.87,-84.1457"/>
</g>
<!-- in_5&#45;&gt;h_6 -->
<g id="edge57" class="edge"><title>in_5&#45;&gt;h_6</title>
<path fill="none" stroke="black" d="M472.021,-9.31227C421.797,-18.7561 115.121,-76.4217 31.8485,-92.0798"/>
<polygon fill="black" stroke="black" points="31.0092,-88.6762 21.8282,-93.9639 32.3028,-95.5556 31.0092,-88.6762"/>
</g>
<!-- in_5&#45;&gt;h_7 -->
<g id="edge58" class="edge"><title>in_5&#45;&gt;h_7</title>
<path fill="none" stroke="black" d="M472.292,-9.45398C427.377,-19.1892 169.826,-75.013 93.9997,-91.4483"/>
<polygon fill="black" stroke="black" points="92.8437,-88.1175 83.8121,-93.6565 94.3266,-94.9587 92.8437,-88.1175"/>
</g>
<!-- in_5&#45;&gt;h_8 -->
<g id="edge59" class="edge"><title>in_5&#45;&gt;h_8</title>
<path fill="none" stroke="black" d="M472.435,-9.67934C432.489,-19.8983 221.578,-73.852 155.093,-90.86"/>
<polygon fill="black" stroke="black" points="154.207,-87.4739 145.386,-93.3431 155.941,-94.2555 154.207,-87.4739"/>
</g>
<!-- in_5&#45;&gt;h_9 -->
<g id="edge60" class="edge"><title>in_5&#45;&gt;h_9</title>
<path fill="none" stroke="black" d="M472.58,-10.0033C438.152,-20.7468 274.814,-71.7175 217.187,-89.7005"/>
<polygon fill="black" stroke="black" points="215.928,-86.4267 207.425,-92.7468 218.014,-93.1089 215.928,-86.4267"/>
</g>
<!-- in_6 -->
<g id="node7" class="node"><title>in_6</title>
<ellipse fill="none" stroke="black" cx="101" cy="-7" rx="7" ry="7"/>
</g>
<!-- in_6&#45;&gt;h_0 -->
<g id="edge61" class="edge"><title>in_6&#45;&gt;h_0</title>
<path fill="none" stroke="black" d="M107.001,-11.3422C128.95,-23.5672 205.43,-66.1636 240.801,-85.8639"/>
<polygon fill="black" stroke="black" points="239.168,-88.9608 249.608,-90.7689 242.575,-82.8453 239.168,-88.9608"/>
</g>
<!-- in_6&#45;&gt;h_1 -->
<g id="edge62" class="edge"><title>in_6&#45;&gt;h_1</title>
<path fill="none" stroke="black" d="M107.347,-10.5388C136.101,-22.0402 254.773,-69.5093 301.739,-88.2957"/>
<polygon fill="black" stroke="black" points="300.51,-91.5737 311.095,-92.038 303.11,-85.0743 300.51,-91.5737"/>
</g>
<!-- in_6&#45;&gt;h_2 -->
<g id="edge63" class="edge"><title>in_6&#45;&gt;h_2</title>
<path fill="none" stroke="black" d="M107.42,-10.0033C141.848,-20.7468 305.186,-71.7175 362.813,-89.7005"/>
<polygon fill="black" stroke="black" points="361.986,-93.1089 372.575,-92.7468 364.072,-86.4267 361.986,-93.1089"/>
</g>
<!-- in_6&#45;&gt;h_3 -->
<g id="edge64" class="edge"><title>in_6&#45;&gt;h_3</title>
<path fill="none" stroke="black" d="M107.565,-9.67934C147.511,-19.8983 358.422,-73.852 424.907,-90.86"/>
<polygon fill="black" stroke="black" points="424.059,-94.2555 434.614,-93.3431 425.793,-87.4739 424.059,-94.2555"/>
</g>
<!-- in_6&#45;&gt;h_4 -->
<g id="edge65" class="edge"><title>in_6&#45;&gt;h_4</title>
<path fill="none" stroke="black" d="M107.708,-9.45398C152.623,-19.1892 410.174,-75.013 486,-91.4483"/>
<polygon fill="black" stroke="black" points="485.673,-94.9587 496.188,-93.6565 487.156,-88.1175 485.673,-94.9587"/>
</g>
<!-- in_6&#45;&gt;h_5 -->
<g id="edge66" class="edge"><title>in_6&#45;&gt;h_5</title>
<path fill="none" stroke="black" d="M107.979,-9.31227C158.203,-18.7561 464.879,-76.4217 548.151,-92.0798"/>
<polygon fill="black" stroke="black" points="547.697,-95.5556 558.172,-93.9639 548.991,-88.6762 547.697,-95.5556"/>
</g>
<!-- in_6&#45;&gt;h_6 -->
<g id="edge67" class="edge"><title>in_6&#45;&gt;h_6</title>
<path fill="none" stroke="black" d="M96.1612,-12.7313C83.0747,-25.527 46.5763,-61.2143 25.8579,-81.4723"/>
<polygon fill="black" stroke="black" points="23.2362,-79.1407 18.533,-88.6344 28.13,-84.1457 23.2362,-79.1407"/>
</g>
<!-- in_6&#45;&gt;h_7 -->
<g id="edge68" class="edge"><title>in_6&#45;&gt;h_7</title>
<path fill="none" stroke="black" d="M99.1628,-13.7739C95.182,-26.2851 85.6045,-56.3859 79.2092,-76.4855"/>
<polygon fill="black" stroke="black" points="75.8172,-75.6028 76.1203,-86.1933 82.4877,-77.7252 75.8172,-75.6028"/>
</g>
<!-- in_6&#45;&gt;h_8 -->
<g id="edge69" class="edge"><title>in_6&#45;&gt;h_8</title>
<path fill="none" stroke="black" d="M103.231,-13.7739C108.112,-26.4079 119.923,-56.9784 127.688,-77.0743"/>
<polygon fill="black" stroke="black" points="124.452,-78.4113 131.321,-86.4779 130.982,-75.8885 124.452,-78.4113"/>
</g>
<!-- in_6&#45;&gt;h_9 -->
<g id="edge70" class="edge"><title>in_6&#45;&gt;h_9</title>
<path fill="none" stroke="black" d="M105.893,-12.4849C119.716,-25.1562 159.493,-61.6185 181.644,-81.9235"/>
<polygon fill="black" stroke="black" points="179.443,-84.654 189.18,-88.8312 184.173,-79.4939 179.443,-84.654"/>
</g>
<!-- in_7 -->
<g id="node8" class="node"><title>in_7</title>
<ellipse fill="none" stroke="black" cx="155" cy="-7" rx="7" ry="7"/>
</g>
<!-- in_7&#45;&gt;h_0 -->
<g id="edge71" class="edge"><title>in_7&#45;&gt;h_0</title>
<path fill="none" stroke="black" d="M160.016,-12.2444C174.905,-24.8424 219.293,-62.4018 243.251,-82.6736"/>
<polygon fill="black" stroke="black" points="241.166,-85.4942 251.06,-89.2818 245.687,-80.1504 241.166,-85.4942"/>
</g>
<!-- in_7&#45;&gt;h_1 -->
<g id="edge72" class="edge"><title>in_7&#45;&gt;h_1</title>
<path fill="none" stroke="black" d="M160.908,-11.132C183.503,-23.1102 265.038,-66.3333 302.249,-86.0595"/>
<polygon fill="black" stroke="black" points="301.008,-89.3632 311.483,-90.9547 304.287,-83.1785 301.008,-89.3632"/>
</g>
<!-- in_7&#45;&gt;h_2 -->
<g id="edge73" class="edge"><title>in_7&#45;&gt;h_2</title>
<path fill="none" stroke="black" d="M161.578,-10.5388C191.445,-22.0664 314.926,-69.7258 363.37,-88.4236"/>
<polygon fill="black" stroke="black" points="362.412,-91.8053 373.001,-92.1408 364.932,-85.2748 362.412,-91.8053"/>
</g>
<!-- in_7&#45;&gt;h_3 -->
<g id="edge74" class="edge"><title>in_7&#45;&gt;h_3</title>
<path fill="none" stroke="black" d="M161.602,-10.0033C197.16,-20.7932 366.432,-72.1587 425.002,-89.9317"/>
<polygon fill="black" stroke="black" points="424.008,-93.2875 434.593,-92.8421 426.04,-86.5891 424.008,-93.2875"/>
</g>
<!-- in_7&#45;&gt;h_4 -->
<g id="edge75" class="edge"><title>in_7&#45;&gt;h_4</title>
<path fill="none" stroke="black" d="M161.717,-9.67934C202.593,-19.8983 418.408,-73.852 486.44,-90.86"/>
<polygon fill="black" stroke="black" points="485.822,-94.3132 496.372,-93.3431 487.52,-87.5222 485.822,-94.3132"/>
</g>
<!-- in_7&#45;&gt;h_5 -->
<g id="edge76" class="edge"><title>in_7&#45;&gt;h_5</title>
<path fill="none" stroke="black" d="M161.84,-9.45398C207.834,-19.2305 472.497,-75.4873 548.56,-91.6553"/>
<polygon fill="black" stroke="black" points="547.857,-95.0839 558.366,-93.7396 549.312,-88.2368 547.857,-95.0839"/>
</g>
<!-- in_7&#45;&gt;h_6 -->
<g id="edge77" class="edge"><title>in_7&#45;&gt;h_6</title>
<path fill="none" stroke="black" d="M149.177,-11.5587C129.054,-23.856 61.8993,-64.8949 29.2007,-84.8773"/>
<polygon fill="black" stroke="black" points="26.957,-82.1466 20.2493,-90.3477 30.6072,-88.1196 26.957,-82.1466"/>
</g>
<!-- in_7&#45;&gt;h_7 -->
<g id="edge78" class="edge"><title>in_7&#45;&gt;h_7</title>
<path fill="none" stroke="black" d="M150.591,-12.7313C138.779,-25.4076 106.033,-60.5504 87.0692,-80.9013"/>
<polygon fill="black" stroke="black" points="84.3634,-78.6711 80.1068,-88.3732 89.4847,-83.4432 84.3634,-78.6711"/>
</g>
<!-- in_7&#45;&gt;h_8 -->
<g id="edge79" class="edge"><title>in_7&#45;&gt;h_8</title>
<path fill="none" stroke="black" d="M153.625,-14.0486C150.766,-26.63 144.067,-56.1056 139.533,-76.0555"/>
<polygon fill="black" stroke="black" points="136.078,-75.4639 137.275,-85.991 142.904,-77.0153 136.078,-75.4639"/>
</g>
<!-- in_7&#45;&gt;h_9 -->
<g id="edge80" class="edge"><title>in_7&#45;&gt;h_9</title>
<path fill="none" stroke="black" d="M157.627,-13.5048C163.619,-26.0586 178.52,-57.2805 188.176,-77.5107"/>
<polygon fill="black" stroke="black" points="185.086,-79.1628 192.552,-86.6801 191.403,-76.1477 185.086,-79.1628"/>
</g>
<!-- out -->
<g id="node20" class="node"><title>out</title>
<ellipse fill="none" stroke="black" cx="290" cy="-191" rx="11" ry="11"/>
</g>
<!-- h_0&#45;&gt;out -->
<g id="edge81" class="edge"><title>h_0&#45;&gt;out</title>
<path fill="none" stroke="black" d="M262.318,-107.846C267.352,-122.786 277.018,-151.473 283.49,-170.679"/>
<polygon fill="black" stroke="black" points="280.196,-171.866 286.706,-180.225 286.83,-169.631 280.196,-171.866"/>
</g>
<!-- h_1&#45;&gt;out -->
<g id="edge82" class="edge"><title>h_1&#45;&gt;out</title>
<path fill="none" stroke="black" d="M317.682,-107.846C312.648,-122.786 302.982,-151.473 296.51,-170.679"/>
<polygon fill="black" stroke="black" points="293.17,-169.631 293.294,-180.225 299.804,-171.866 293.17,-169.631"/>
</g>
<!-- h_2&#45;&gt;out -->
<g id="edge83" class="edge"><title>h_2&#45;&gt;out</title>
<path fill="none" stroke="black" d="M375.389,-105.529C359.986,-120.767 324.879,-155.497 304.806,-175.354"/>
<polygon fill="black" stroke="black" points="302.104,-173.103 297.456,-182.624 307.027,-178.08 302.104,-173.103"/>
</g>
<!-- h_3&#45;&gt;out -->
<g id="edge84" class="edge"><title>h_3&#45;&gt;out</title>
<path fill="none" stroke="black" d="M435.768,-103.48C410.736,-118.337 341.229,-159.593 308.062,-179.28"/>
<polygon fill="black" stroke="black" points="306.192,-176.319 299.379,-184.433 309.765,-182.338 306.192,-176.319"/>
</g>
<!-- h_4&#45;&gt;out -->
<g id="edge85" class="edge"><title>h_4&#45;&gt;out</title>
<path fill="none" stroke="black" d="M497.112,-102.192C463.645,-116.381 354.223,-162.772 309.407,-181.772"/>
<polygon fill="black" stroke="black" points="307.787,-178.658 299.946,-185.783 310.519,-185.102 307.787,-178.658"/>
</g>
<!-- h_5&#45;&gt;out -->
<g id="edge86" class="edge"><title>h_5&#45;&gt;out</title>
<path fill="none" stroke="black" d="M558.739,-101.383C517.725,-114.908 365.125,-165.228 310.014,-183.4"/>
<polygon fill="black" stroke="black" points="308.755,-180.13 300.354,-186.586 310.947,-186.778 308.755,-180.13"/>
</g>
<!-- h_6&#45;&gt;out -->
<g id="edge87" class="edge"><title>h_6&#45;&gt;out</title>
<path fill="none" stroke="black" d="M21.2606,-101.383C62.2748,-114.908 214.875,-165.228 269.986,-183.4"/>
<polygon fill="black" stroke="black" points="269.053,-186.778 279.646,-186.586 271.245,-180.13 269.053,-186.778"/>
</g>
<!-- h_7&#45;&gt;out -->
<g id="edge88" class="edge"><title>h_7&#45;&gt;out</title>
<path fill="none" stroke="black" d="M82.8879,-102.192C116.355,-116.381 225.777,-162.772 270.593,-181.772"/>
<polygon fill="black" stroke="black" points="269.481,-185.102 280.054,-185.783 272.213,-178.658 269.481,-185.102"/>
</g>
<!-- h_8&#45;&gt;out -->
<g id="edge89" class="edge"><title>h_8&#45;&gt;out</title>
<path fill="none" stroke="black" d="M144.232,-103.48C169.264,-118.337 238.771,-159.593 271.938,-179.28"/>
<polygon fill="black" stroke="black" points="270.235,-182.338 280.621,-184.433 273.808,-176.319 270.235,-182.338"/>
</g>
<!-- h_9&#45;&gt;out -->
<g id="edge90" class="edge"><title>h_9&#45;&gt;out</title>
<path fill="none" stroke="black" d="M204.611,-105.529C220.014,-120.767 255.121,-155.497 275.194,-175.354"/>
<polygon fill="black" stroke="black" points="272.973,-178.08 282.544,-182.624 277.896,-173.103 272.973,-178.08"/>
</g>
<!-- empty -->
<g id="node19" class="node"><title>empty</title>
<ellipse fill="none" stroke="black" cx="290" cy="-277.5" rx="3.5" ry="3.5"/>
</g>
<!-- out&#45;&gt;empty -->
<g id="edge91" class="edge"><title>out&#45;&gt;empty</title>
<path fill="none" stroke="black" d="M290,-202.025C290,-217.341 290,-246.567 290,-263.496"/>
<polygon fill="black" stroke="black" points="286.5,-263.935 290,-273.935 293.5,-263.935 286.5,-263.935"/>
</g>
</g>
</svg>
