<?xml version="1.0" encoding="UTF-8" standalone="no"?>
<!DOCTYPE svg PUBLIC "-//W3C//DTD SVG 1.1//EN"
 "http://www.w3.org/Graphics/SVG/1.1/DTD/svg11.dtd">
<!-- Generated by graphviz version 2.38.0 (20140413.2041)
 -->
<!-- Title: perceptron Pages: 1 -->
<svg width="400pt" height="195pt"
 viewBox="0.00 0.00 400.00 195.00" xmlns="http://www.w3.org/2000/svg" xmlns:xlink="http://www.w3.org/1999/xlink">
<g id="graph0" class="graph" transform="scale(1 1) rotate(0) translate(4 191)">
<title>perceptron</title>
<polygon fill="white" stroke="none" points="-4,4 -4,-191 396,-191 396,4 -4,4"/>
<!-- 0 -->
<g id="node1" class="node"><title>0</title>
<ellipse fill="none" stroke="black" cx="7" cy="-7" rx="7" ry="7"/>
</g>
<!-- out -->
<g id="node9" class="node"><title>out</title>
<ellipse fill="none" stroke="black" cx="196" cy="-97" rx="11" ry="11"/>
</g>
<!-- 0&#45;&gt;out -->
<g id="edge1" class="edge"><title>0&#45;&gt;out</title>
<path fill="none" stroke="black" d="M13.2884,-10.9279C38.7969,-22.8049 135.167,-67.6758 176.729,-87.0274"/>
<polygon fill="black" stroke="black" points="175.496,-90.3137 186.038,-91.3618 178.45,-83.9678 175.496,-90.3137"/>
</g>
<!-- 1 -->
<g id="node2" class="node"><title>1</title>
<ellipse fill="none" stroke="black" cx="61" cy="-7" rx="7" ry="7"/>
</g>
<!-- 1&#45;&gt;out -->
<g id="edge2" class="edge"><title>1&#45;&gt;out</title>
<path fill="none" stroke="black" d="M66.4594,-11.5587C85.2351,-23.7977 147.686,-64.5065 178.499,-84.5918"/>
<polygon fill="black" stroke="black" points="176.674,-87.58 186.962,-90.1087 180.496,-81.7158 176.674,-87.58"/>
</g>
<!-- 2 -->
<g id="node3" class="node"><title>2</title>
<ellipse fill="none" stroke="black" cx="115" cy="-7" rx="7" ry="7"/>
</g>
<!-- 2&#45;&gt;out -->
<g id="edge3" class="edge"><title>2&#45;&gt;out</title>
<path fill="none" stroke="black" d="M119.355,-12.7313C131.023,-25.4076 163.37,-60.5504 182.102,-80.9013"/>
<polygon fill="black" stroke="black" points="179.632,-83.3859 188.98,-88.3732 184.783,-78.6452 179.632,-83.3859"/>
</g>
<!-- 3 -->
<g id="node4" class="node"><title>3</title>
<ellipse fill="none" stroke="black" cx="169" cy="-7" rx="7" ry="7"/>
</g>
<!-- 3&#45;&gt;out -->
<g id="edge4" class="edge"><title>3&#45;&gt;out</title>
<path fill="none" stroke="black" d="M170.772,-13.7739C174.61,-26.2851 183.846,-56.3859 190.013,-76.4855"/>
<polygon fill="black" stroke="black" points="186.712,-77.6598 192.991,-86.1933 193.404,-75.6065 186.712,-77.6598"/>
</g>
<!-- 4 -->
<g id="node5" class="node"><title>4</title>
<ellipse fill="none" stroke="black" cx="223" cy="-7" rx="7" ry="7"/>
</g>
<!-- 4&#45;&gt;out -->
<g id="edge5" class="edge"><title>4&#45;&gt;out</title>
<path fill="none" stroke="black" d="M221.228,-13.7739C217.39,-26.2851 208.154,-56.3859 201.987,-76.4855"/>
<polygon fill="black" stroke="black" points="198.596,-75.6065 199.009,-86.1933 205.288,-77.6598 198.596,-75.6065"/>
</g>
<!-- 5 -->
<g id="node6" class="node"><title>5</title>
<ellipse fill="none" stroke="black" cx="277" cy="-7" rx="7" ry="7"/>
</g>
<!-- 5&#45;&gt;out -->
<g id="edge6" class="edge"><title>5&#45;&gt;out</title>
<path fill="none" stroke="black" d="M272.645,-12.7313C260.977,-25.4076 228.63,-60.5504 209.898,-80.9013"/>
<polygon fill="black" stroke="black" points="207.217,-78.6452 203.02,-88.3732 212.368,-83.3859 207.217,-78.6452"/>
</g>
<!-- 6 -->
<g id="node7" class="node"><title>6</title>
<ellipse fill="none" stroke="black" cx="331" cy="-7" rx="7" ry="7"/>
</g>
<!-- 6&#45;&gt;out -->
<g id="edge7" class="edge"><title>6&#45;&gt;out</title>
<path fill="none" stroke="black" d="M325.541,-11.5587C306.765,-23.7977 244.314,-64.5065 213.501,-84.5918"/>
<polygon fill="black" stroke="black" points="211.504,-81.7158 205.038,-90.1087 215.326,-87.58 211.504,-81.7158"/>
</g>
<!-- 7 -->
<g id="node8" class="node"><title>7</title>
<ellipse fill="none" stroke="black" cx="385" cy="-7" rx="7" ry="7"/>
</g>
<!-- 7&#45;&gt;out -->
<g id="edge8" class="edge"><title>7&#45;&gt;out</title>
<path fill="none" stroke="black" d="M378.712,-10.9279C353.203,-22.8049 256.833,-67.6758 215.271,-87.0274"/>
<polygon fill="black" stroke="black" points="213.55,-83.9678 205.962,-91.3618 216.504,-90.3137 213.55,-83.9678"/>
</g>
<!-- empty -->
<g id="node10" class="node"><title>empty</title>
<ellipse fill="none" stroke="black" cx="196" cy="-183.5" rx="3.5" ry="3.5"/>
</g>
<!-- out&#45;&gt;empty -->
<g id="edge9" class="edge"><title>out&#45;&gt;empty</title>
<path fill="none" stroke="black" d="M196,-108.025C196,-123.341 196,-152.567 196,-169.496"/>
<polygon fill="black" stroke="black" points="192.5,-169.935 196,-179.935 199.5,-169.935 192.5,-169.935"/>
</g>
</g>
</svg>
